<?xml version="1.0" encoding="UTF-8" standalone="no"?>
<svg width="52px" height="33px" viewBox="0 0 52 33" version="1.1" xmlns="http://www.w3.org/2000/svg" xmlns:xlink="http://www.w3.org/1999/xlink" xmlns:sketch="http://www.bohemiancoding.com/sketch/ns">
    <!-- Generator: Sketch 3.0.4 (8054) - http://www.bohemiancoding.com/sketch -->
    <title>ic_bike</title>
    <desc>Created with Sketch.</desc>
    <defs></defs>
    <g id="Page-1" stroke="none" stroke-width="1" fill="none" fill-rule="evenodd" sketch:type="MSPage">
        <g id="ic_bike" sketch:type="MSLayerGroup" fill="#FFFFFF">
            <path d="M0,22.132 C0,28.136 4.887,33.02 10.89,33.02 C16.896,33.02 21.779,28.136 21.779,22.132 C21.779,17.414 18.758,13.4 14.552,11.89 L15.406,8.497 L27.117,23.185 L29.346,23.185 C29.877,28.697 34.534,33.019 40.181,33.019 C46.186,33.019 51.07,28.135 51.07,22.131 C51.07,16.127 46.185,11.243 40.18,11.243 C38.277,11.243 36.486,11.737 34.927,12.599 L32.016,8.35 L33.672,1.454 L27.623,1.454 L27.623,3.561 L30.998,3.561 L30.237,6.721 L15.85,6.721 L16.998,2.156 L20.724,2.156 L20.724,0.049 L10.889,0.049 L10.889,2.156 L14.827,2.156 L12.509,11.376 C11.979,11.298 11.443,11.243 10.89,11.243 C4.887,11.243 0,16.128 0,22.132 L0,22.132 Z M33.189,13.794 C31.063,15.58 29.627,18.162 29.344,21.077 L28.958,21.077 L31.352,11.111 L33.189,13.794 L33.189,13.794 Z M34.392,15.546 L38.181,21.078 L31.469,21.078 C31.731,18.882 32.811,16.939 34.392,15.546 L34.392,15.546 Z M31.469,23.187 L42.179,23.187 L36.125,14.352 C37.34,13.717 38.718,13.353 40.18,13.353 C45.022,13.353 48.961,17.291 48.961,22.134 C48.961,26.975 45.022,30.914 40.18,30.914 C35.694,30.913 31.991,27.532 31.469,23.187 L31.469,23.187 Z M18.368,8.83 L29.733,8.83 L27.101,19.788 L18.368,8.83 L18.368,8.83 Z M2.109,22.132 C2.109,17.289 6.048,13.351 10.889,13.351 C11.264,13.351 11.631,13.382 11.993,13.428 L9.868,21.875 L11.912,22.389 L14.035,13.945 C17.326,15.214 19.67,18.401 19.67,22.133 C19.67,26.974 15.732,30.913 10.889,30.913 C6.049,30.913 2.109,26.974 2.109,22.132 L2.109,22.132 Z" id="Shape" sketch:type="MSShapeGroup"></path>
        </g>
    </g>
</svg>