<?xml version="1.0" encoding="iso-8859-1"?>
<!-- Generator: Adobe Illustrator 16.0.0, SVG Export Plug-In . SVG Version: 6.00 Build 0)  -->
<!DOCTYPE svg PUBLIC "-//W3C//DTD SVG 1.1//EN" "http://www.w3.org/Graphics/SVG/1.1/DTD/svg11.dtd">
<svg version="1.1" id="Capa_1" xmlns="http://www.w3.org/2000/svg" xmlns:xlink="http://www.w3.org/1999/xlink" x="0px" y="0px"
	 width="24px" height="24px" viewBox="0 0 24 24" style="enable-background:new 0 0 24 24;" xml:space="preserve">
<g>
	<path fill="#FFFFFF" d="M19.41,13.414C19.243,13.782,18.88,14,18.499,14c-0.139,0-0.278-0.027-0.413-0.09l-3.3-1.5
		c-0.24-0.109-0.43-0.311-0.521-0.557l-0.551-1.456L13,13.9l1.686,2.68L15.3,17.4c0.054,0.069,0.097,0.146,0.13,0.229l2,5
		c0.204,0.514-0.046,1.096-0.559,1.301C16.75,23.979,16.624,24,16.5,24c-0.396,0-0.771-0.236-0.931-0.629l-1.863-4.665L10.2,15.2
		c0,0-1-0.8-0.7-2.2c0.2-0.6,0.6-2.5,0.9-4c0,0,0.023-0.146,0.066-0.365L8.185,9.776l-1.853,2.779C6.139,12.844,5.822,13,5.499,13
		c-0.19,0-0.383-0.055-0.554-0.168c-0.459-0.307-0.583-0.927-0.277-1.387l2-3C6.765,8.3,6.897,8.184,7.053,8.105l4-2
		c0.136-0.068,0.281-0.095,0.424-0.099C11.484,6.006,11.492,6,11.5,6c0.3,0,2,0,2,0s0.003,0.004,0.004,0.006
		c0.401,0.001,0.781,0.242,0.932,0.641l1.557,4.114l2.924,1.33C19.417,12.318,19.639,12.911,19.41,13.414z M14,5
		c1.381,0,2.5-1.119,2.5-2.5S15.381,0,14,0s-2.5,1.119-2.5,2.5S12.619,5,14,5z M9.2,15.4l-0.663,3.217L5.7,22.4
		c-0.332,0.439-0.242,1.066,0.2,1.397C6.08,23.936,6.291,24,6.499,24c0.304,0,0.604-0.139,0.801-0.4l2.909-3.879
		c0.141-0.134,0.248-0.304,0.291-0.521l0.7-1.7l-1.6-1.6C9.5,15.8,9.3,15.6,9.2,15.4z"/>
</g>
<g>
</g>
<g>
</g>
<g>
</g>
<g>
</g>
<g>
</g>
<g>
</g>
<g>
</g>
<g>
</g>
<g>
</g>
<g>
</g>
<g>
</g>
<g>
</g>
<g>
</g>
<g>
</g>
<g>
</g>
</svg>
